<svg xmlns="http://www.w3.org/2000/svg" viewBox="0 0 511.82 587.26"><defs><style>.cls-1{fill:#203bbf;}.cls-2{fill:#ff5f17;}.cls-3{fill:#fff;}.cls-4{fill:#142852;}.cls-5{fill:#ffdccc;}.cls-6{fill:#69c400;}.cls-7{fill:#f7d80f;}</style></defs><g id="Layer_2" data-name="Layer 2"><g id="Layer_1-2" data-name="Layer 1"><path class="cls-1" d="M469.38,225A210.52,210.52,0,0,1,261.64,422.57l-2.31,0c-116,0-210.46-94.42-210.46-210.46A210.7,210.7,0,0,1,251.33,1.82h.8a21.05,21.05,0,0,1,21,21v28.9a21,21,0,0,1-20.14,21A139.23,139.23,0,0,0,119.8,212.13c0,76.93,62.6,139.51,139.53,139.51,73,0,134.16-57.07,139.18-129.92a21.11,21.11,0,0,1,21-19.63H420l28.9.66A21,21,0,0,1,469.38,225Z"/><path class="cls-2" d="M331.06,219.35a77.9,77.9,0,0,1-4,16.33,79.74,79.74,0,0,1-3.39,8l-.26,0-8,.95c-3.08.34-5.94.64-8.64.88-11,.94-19.18.71-28.1-2.11a63.13,63.13,0,0,1-8.71-3.44c-1.86-.92-3.36-1.77-4.63-2.5-3-1.71-4-2.28-7-2.28s-4.05.57-7.05,2.28a61.93,61.93,0,0,1-13.34,5.94A56.94,56.94,0,0,1,220,246.1c-3.09,0-6.33-.17-9.87-.46-2.68-.23-5.55-.53-8.64-.88-2.59-.29-5.36-.63-8.31-1a84.36,84.36,0,0,1-3.34-7.87v0a78.69,78.69,0,0,1-4.09-16.48,72.34,72.34,0,0,1,.65-23.73c.16-.79.33-1.57.52-2.36h0a73.83,73.83,0,0,1,6.44-17.06,77.68,77.68,0,0,1,4.52-7.58c3.16-.45,6.34-.86,9.52-1.23,3.42-.42,6.85-.78,10.28-1.11,13.24-1.25,26.56-1.89,39.81-1.92,13.83,0,27.78.63,41.65,2,3.42.33,6.83.69,10.23,1.11q4.78.56,9.56,1.25a76.09,76.09,0,0,1,4.49,7.57,72.91,72.91,0,0,1,6.45,17.16c.18.73.33,1.46.48,2.19A72.7,72.7,0,0,1,331.06,219.35Z"/><path class="cls-2" d="M323.67,243.73a83.14,83.14,0,0,1-10.35,16.16c-14.21,17.35-34.21,27.31-54.91,27.33S217.85,277.3,203.62,260a83.05,83.05,0,0,1-10.42-16.23c3,.35,5.72.69,8.31,1,3.09.35,6,.65,8.64.88,3.54.29,6.78.46,9.87.46a56.94,56.94,0,0,0,17.84-2.61,61.93,61.93,0,0,0,13.34-5.94c3-1.71,4-2.28,7.05-2.28s4,.57,7,2.28c1.27.73,2.77,1.58,4.63,2.5a63.13,63.13,0,0,0,8.71,3.44c8.92,2.82,17.09,3,28.1,2.11,2.7-.24,5.56-.54,8.64-.88l8-.95Z"/><path class="cls-2" d="M319,168.73q-4.77-.69-9.56-1.25c-3.4-.42-6.81-.78-10.23-1.11-13.87-1.33-27.82-2-41.65-2-13.25,0-26.57.67-39.81,1.92-3.43.33-6.86.69-10.28,1.11-3.18.37-6.36.78-9.52,1.23a78.57,78.57,0,0,1,11.56-13.57,70.77,70.77,0,0,1,48.12-19.51h.8A70.82,70.82,0,0,1,307,154.77,78.48,78.48,0,0,1,319,168.73Z"/><path class="cls-3" d="M205.9,231.35l-3.14-.34C203.85,231.14,204.89,231.25,205.9,231.35Z"/><path class="cls-4" d="M317.46,230.57l-3.36.39Z"/><path class="cls-2" d="M338.13,181.23a18.68,18.68,0,0,0-2.76-5c-1.18-1.54-5.5-6.55-12.18-6.88-1.42-.22-2.83-.43-4.24-.62q-4.77-.69-9.56-1.25c-3.4-.42-6.81-.78-10.23-1.11-13.87-1.33-27.82-2-41.65-2-13.25,0-26.57.67-39.81,1.92-3.43.33-6.86.69-10.28,1.11-3.18.37-6.36.78-9.52,1.23-1.53.21-3.08.44-4.61.68a16.81,16.81,0,0,0-15.38,12.2A18.44,18.44,0,0,0,167,198.47v16.21a18.44,18.44,0,0,0,11,17,17.13,17.13,0,0,0,3.95,7,17.69,17.69,0,0,0,11.09,5.13h.13c3,.35,5.72.69,8.31,1,3.09.35,6,.65,8.64.88,3.54.29,6.78.46,9.87.46a56.94,56.94,0,0,0,17.84-2.61,61.93,61.93,0,0,0,13.34-5.94c3-1.71,4-2.28,7.05-2.28s4,.57,7,2.28c1.27.73,2.77,1.58,4.63,2.5a63.13,63.13,0,0,0,8.71,3.44c8.92,2.82,17.09,3,28.1,2.11,2.7-.24,5.56-.54,8.64-.88l8-.95.26,0a17.4,17.4,0,0,0,10.84-5.11,17,17,0,0,0,3.88-6.81,18.27,18.27,0,0,0,11.35-17.13V198.47A18.3,18.3,0,0,0,338.13,181.23Zm-2.2,33.45c0,2.42-1.72,4.47-3.83,4.54a7,7,0,0,0-1.73.3,3.61,3.61,0,0,0-.46.17,4.93,4.93,0,0,0-.53.22,6.54,6.54,0,0,0-1.94,1.4,4.72,4.72,0,0,0-.37.41,3.66,3.66,0,0,0-.38.5c-.11.17-.21.33-.31.51a6.78,6.78,0,0,0-.91,3.4v.17a4.85,4.85,0,0,1-1,2.82,4.65,4.65,0,0,1-2.73.94h-.09l-3.92.46-.29,0-3.36.39-.67.08-2.69.3c-2.34.25-4.5.46-6.52.61-.65.07-1.29.1-1.92.14l-1,.06c-.65,0-1.28.08-1.91.1a53.08,53.08,0,0,1-11.19-.61,9.79,9.79,0,0,1-1-.18c-.2,0-.39-.07-.59-.12s-.59-.13-.89-.19c-1-.24-1.94-.5-2.92-.82a48.42,48.42,0,0,1-10.67-4.77c-3-1.72-6.08-3.47-11-3.95a25.57,25.57,0,0,0-2.85-.15c-6.71,0-10.36,2.08-13.9,4.1a48.42,48.42,0,0,1-10.67,4.77c-7.92,2.51-15.25,2.36-27.78,1-1-.1-2.05-.21-3.14-.34l-8-.95a4.73,4.73,0,0,1-2.73-.92,5,5,0,0,1-1-2.84v-.19a6.53,6.53,0,0,0-.11-1.25,1.63,1.63,0,0,0-.07-.3s0,0,0-.05a2.21,2.21,0,0,0-.08-.35,3.26,3.26,0,0,0-.22-.62,6.22,6.22,0,0,0-1-1.69,5.07,5.07,0,0,0-.37-.44,4.83,4.83,0,0,0-.46-.44,2.57,2.57,0,0,0-.4-.34l-.42-.3a2,2,0,0,0-.34-.2,3.63,3.63,0,0,0-.79-.39,1.43,1.43,0,0,0-.39-.15,1.76,1.76,0,0,0-.3-.1l-.27-.08a6.71,6.71,0,0,0-1.19-.19,4.33,4.33,0,0,1-3.74-4.54V198.47a4.36,4.36,0,0,1,3.74-4.56,4.07,4.07,0,0,0,.61-.07l.52-.1.49-.14a7,7,0,0,0,.8-.31,3.55,3.55,0,0,0,.43-.23,1.88,1.88,0,0,0,.36-.21,6.79,6.79,0,0,0,.67-.49s0,0,0,0,.28-.23.42-.36a.38.38,0,0,0,.11-.11,2.43,2.43,0,0,0,.34-.38s.06-.06.09-.09.25-.32.36-.5a3.48,3.48,0,0,0,.34-.56,1.43,1.43,0,0,0,.15-.27h0a3,3,0,0,0,.2-.45,4.3,4.3,0,0,0,.2-.57,5.75,5.75,0,0,0,.27-1.42,5.68,5.68,0,0,0,0-.59v-.49a3.23,3.23,0,0,1,2.9-3.4,5.26,5.26,0,0,0,1.05-.09c1-.15,2-.3,3-.43,1.24-.19,2.47-.37,3.71-.53a3,3,0,0,1,.42-.06c1.38-.21,2.76-.38,4.14-.56,0,0,0,0,0,0,1.9-.24,3.79-.46,5.69-.66s3.85-.43,5.78-.62,3.73-.35,5.59-.5h0c1.62-.14,3.23-.26,4.83-.38,4.11-.3,8.21-.52,12.32-.7q8.51-.37,17-.39,7.59,0,15.22.26l1.78.07c.5,0,1,0,1.49.06,1.8.08,3.59.15,5.39.25,2.85.16,5.71.35,8.56.58,1.54.11,3.1.24,4.65.38.72.06,1.46.12,2.19.2,1.33.11,2.65.25,4,.39.71.06,1.42.13,2.14.22,2.62.28,5.24.58,7.86.92,1.31.16,2.63.34,3.95.53q3.4.45,6.79,1a6.75,6.75,0,0,0,1,.09,4.6,4.6,0,0,1,1.92,1.53,5.45,5.45,0,0,1,1,2.4c0,.23,0,.44,0,.65a3.52,3.52,0,0,0,.09.58,1.81,1.81,0,0,0,.07.35c0,.18.09.34.14.51a6.51,6.51,0,0,0,.86,1.73c.1.15.21.31.32.45a5.73,5.73,0,0,0,.39.45,6.41,6.41,0,0,0,.78.69l.36.27.51.31.31.16a3.76,3.76,0,0,0,.46.2,5.33,5.33,0,0,0,.88.29l.24,0a5.77,5.77,0,0,0,1.18.15,4.36,4.36,0,0,1,3.83,4.56Z"/><path class="cls-5" d="M335.93,198.47v16.21c0,2.42-1.72,4.47-3.83,4.54a7,7,0,0,0-1.73.3,2,2,0,0,0-.46.17,3.67,3.67,0,0,0-.53.22,6.54,6.54,0,0,0-1.94,1.4,5.06,5.06,0,0,0-.37.41,3.66,3.66,0,0,0-.38.5,3.86,3.86,0,0,0-.31.51,6.78,6.78,0,0,0-.91,3.4v.17a4.85,4.85,0,0,1-1,2.82,4.65,4.65,0,0,1-2.73.94h-.09l-3.92.46-.29,0-3.36.39-.67.08-2.69.3c-2.34.25-4.5.46-6.52.61l-1.92.14-1,.06c-.65,0-1.28.08-1.91.1a53.08,53.08,0,0,1-11.19-.61c-.33,0-.64-.11-1-.18s-.39-.07-.59-.12l-.89-.19c-1-.24-1.94-.5-2.92-.82a48.42,48.42,0,0,1-10.67-4.77c-3-1.72-6.08-3.47-11-3.95q-10.31-21.5-20.59-43,8.51-.37,17-.39,7.59,0,15.22.26l1.78.07c.5,0,1,0,1.49.06,1.8.06,3.59.16,5.39.25,2.85.16,5.71.35,8.56.58,1.54.11,3.1.24,4.65.38.72.06,1.46.12,2.19.2,1.33.11,2.65.25,4,.39.72.07,1.43.13,2.14.22,2.62.28,5.24.58,7.86.92,1.31.16,2.63.34,3.95.53q3.4.45,6.79,1a6.75,6.75,0,0,0,1,.09,4.6,4.6,0,0,1,1.92,1.53,5.45,5.45,0,0,1,1,2.4c0,.23,0,.44,0,.65a3.52,3.52,0,0,0,.09.58,1.81,1.81,0,0,0,.07.35c0,.18.09.34.14.51a6.51,6.51,0,0,0,.86,1.73c.1.15.21.31.32.45a5.73,5.73,0,0,0,.39.45,6.41,6.41,0,0,0,.78.69,3.07,3.07,0,0,0,.36.27l.51.31.31.16a3.76,3.76,0,0,0,.46.2,5.33,5.33,0,0,0,.88.29,1.29,1.29,0,0,0,.24,0,5.77,5.77,0,0,0,1.18.15A4.36,4.36,0,0,1,335.93,198.47Z"/><path class="cls-3" d="M261.1,221.61a25.57,25.57,0,0,0-2.85-.15c-6.71,0-10.36,2.08-13.9,4.1a48.42,48.42,0,0,1-10.67,4.77c-7.92,2.51-15.25,2.36-27.78,1l-3.14-.34-8-.95a4.73,4.73,0,0,1-2.73-.92,5,5,0,0,1-1-2.84v-.19a6.53,6.53,0,0,0-.11-1.25c0-.1,0-.2-.07-.3s0,0,0-.05a2.21,2.21,0,0,0-.08-.35,3.26,3.26,0,0,0-.22-.62,6.22,6.22,0,0,0-1-1.69,5.07,5.07,0,0,0-.37-.44,4.83,4.83,0,0,0-.46-.44,2.57,2.57,0,0,0-.4-.34,4,4,0,0,0-.42-.3,1.45,1.45,0,0,0-.34-.2,3.63,3.63,0,0,0-.79-.39,1.43,1.43,0,0,0-.39-.15,1.76,1.76,0,0,0-.3-.1l-.27-.08a6.71,6.71,0,0,0-1.19-.19,4.33,4.33,0,0,1-3.74-4.54V198.47a4.36,4.36,0,0,1,3.74-4.56,4.07,4.07,0,0,0,.61-.07l.52-.1.49-.14a7,7,0,0,0,.8-.31,3.55,3.55,0,0,0,.43-.23,1.88,1.88,0,0,0,.36-.21,4,4,0,0,0,.67-.49s0,0,0,0a3.36,3.36,0,0,0,.42-.36.38.38,0,0,0,.11-.11,3.88,3.88,0,0,0,.34-.38s.06-.06.09-.09.25-.32.36-.5a3.81,3.81,0,0,0,.34-.56,1.82,1.82,0,0,0,.15-.27h0a3,3,0,0,0,.2-.45,4.3,4.3,0,0,0,.2-.57,5.75,5.75,0,0,0,.27-1.42,5.68,5.68,0,0,0,0-.59v-.49a3.23,3.23,0,0,1,2.9-3.4,5.26,5.26,0,0,0,1.05-.09c1-.15,2-.3,3-.43,1.24-.19,2.47-.37,3.71-.53a3,3,0,0,1,.42-.06l4.14-.56s0,0,0,0c1.9-.24,3.79-.46,5.69-.66s3.85-.43,5.78-.62l5.59-.5h0c1.61-.14,3.21-.26,4.83-.38,4.11-.3,8.21-.52,12.32-.7Q250.8,200.12,261.1,221.61Z"/><path class="cls-2" d="M30.2,485.14c10.18,0,17.42,4.66,21.11,10.68v-9.7h21v68.49h-21v-9.7c-3.81,6-11.05,10.68-21.24,10.68C13.38,555.59,0,541.85,0,520.24S13.38,485.14,30.2,485.14Zm6.13,18.29c-7.85,0-15,5.89-15,16.81s7.12,17.06,15,17.06,15-6,15-16.93S44.31,503.43,36.33,503.43Z"/><path class="cls-2" d="M86.53,486.12h21l9.7,49,11.53-49H151l11.66,48.73,9.58-48.73H192l-18.54,68.49h-23.2l-10.8-44.43-11.17,44.43H105.19Z"/><path class="cls-1" d="M248.18,485.14c16.82,0,30.2,13.5,30.2,35.1s-13.38,35.35-30.2,35.35c-10.06,0-17.31-4.78-21.11-10.55v42.22h-21V486.12h21v9.7C230.87,489.8,238.12,485.14,248.18,485.14Zm-6.26,18.29c-7.85,0-15,6-15,16.94s7.12,16.93,15,16.93,15.1-6.13,15.1-17.06S249.9,503.43,241.92,503.43Z"/><path class="cls-1" d="M321.58,485.14c10.18,0,17.43,4.66,21.11,10.68v-9.7h21v68.49h-21v-9.7c-3.81,6-11.05,10.68-21.24,10.68-16.69,0-30.07-13.74-30.07-35.35S304.76,485.14,321.58,485.14Zm6.13,18.29c-7.85,0-15,5.89-15,16.81s7.12,17.06,15,17.06,15-6,15-16.93S335.69,503.43,327.71,503.43Z"/><path class="cls-1" d="M406,554.61H385V486.12h21v11.41c4.79-7.24,12.27-12.15,21.48-12.15V507.6h-5.77c-9.94,0-15.71,3.44-15.71,15.22Z"/><path class="cls-1" d="M469.72,485.14c10.19,0,17.43,4.66,21.11,10.68v-9.7h21v68.49h-21v-9.7c-3.8,6-11,10.68-21.23,10.68-16.69,0-30.07-13.74-30.07-35.35S452.91,485.14,469.72,485.14Zm6.14,18.29c-7.86,0-15,5.89-15,16.81s7.12,17.06,15,17.06,15-6,15-16.93S483.84,503.43,475.86,503.43Z"/><rect class="cls-6" x="405.81" y="106.59" width="57.49" height="57.49" rx="10" transform="translate(569.89 -299.22) rotate(90)"/><path class="cls-6" d="M450.75,171.61H418.37a20.11,20.11,0,0,1-20.09-20.09V119.14a20.11,20.11,0,0,1,20.09-20.08h32.38a20.11,20.11,0,0,1,20.09,20.08v32.38A20.12,20.12,0,0,1,450.75,171.61Zm-32.38-57.49a5,5,0,0,0-5,5v32.38a5,5,0,0,0,5,5h32.38a5,5,0,0,0,5-5V119.14a5,5,0,0,0-5-5Z"/><rect class="cls-2" x="406.09" y="7.53" width="57.49" height="57.49" rx="10" transform="translate(471.11 -398.56) rotate(90)"/><path class="cls-2" d="M451,72.55H418.64a20.11,20.11,0,0,1-20.08-20.08V20.09A20.11,20.11,0,0,1,418.64,0H451a20.11,20.11,0,0,1,20.09,20.09V52.47A20.11,20.11,0,0,1,451,72.55ZM418.64,15.06a5,5,0,0,0-5,5V52.47a5,5,0,0,0,5,5H451a5,5,0,0,0,5-5V20.09a5,5,0,0,0-5-5Z"/><rect class="cls-7" x="306.76" y="8" width="57.49" height="57.49" rx="10" transform="translate(372.24 -298.76) rotate(90)"/><path class="cls-7" d="M351.69,73H319.31a20.11,20.11,0,0,1-20.09-20.09V20.55A20.11,20.11,0,0,1,319.31.47h32.38a20.11,20.11,0,0,1,20.09,20.08V52.93A20.11,20.11,0,0,1,351.69,73ZM319.31,15.53a5,5,0,0,0-5,5V52.93a5,5,0,0,0,5,5h32.38a5,5,0,0,0,5-5V20.55a5,5,0,0,0-5-5Z"/></g></g></svg>