<svg xmlns="http://www.w3.org/2000/svg" viewBox="0 0 1334.34 336.61"><defs><style>.cls-1{fill:#ff5f17;}.cls-2{fill:#203bbf;}.cls-3{fill:#fff;}.cls-4{fill:#142852;}.cls-5{fill:#ffdccc;}.cls-6{fill:#69c400;}.cls-7{fill:#f7d80f;}</style></defs><g id="Layer_2" data-name="Layer 2"><g id="Layer_1-2" data-name="Layer 1"><path class="cls-1" d="M485.6,107.22c17.95,0,30.71,8.22,37.2,18.82V109h37v120.7h-37V212.56c-6.71,10.6-19.47,18.82-37.42,18.82-29.42,0-53-24.23-53-62.3S456,107.22,485.6,107.22Zm10.81,32.23c-13.84,0-26.39,10.38-26.39,29.63s12.55,30.07,26.39,30.07c14.06,0,26.39-10.6,26.39-29.85S510.47,139.45,496.41,139.45Z"/><path class="cls-1" d="M584.87,109h37L639,195.25,659.28,109h39.15L719,194.82,735.85,109h34.83L738,229.65H697.14l-19-78.3-19.68,78.3H617.75Z"/><path class="cls-2" d="M869.74,107.22c29.63,0,53.21,23.79,53.21,61.86s-23.58,62.3-53.21,62.3c-17.74,0-30.5-8.44-37.21-18.6v74.4h-37V109h37V126C839.24,115.44,852,107.22,869.74,107.22Zm-11,32.23c-13.85,0-26.39,10.6-26.39,29.85s12.54,29.85,26.39,29.85c14.06,0,26.6-10.82,26.6-30.07S872.77,139.45,858.71,139.45Z"/><path class="cls-2" d="M999.08,107.22c17.95,0,30.72,8.22,37.2,18.82V109h37v120.7h-37V212.56c-6.7,10.6-19.46,18.82-37.41,18.82-29.42,0-53-24.23-53-62.3S969.45,107.22,999.08,107.22Zm10.82,32.23c-13.85,0-26.39,10.38-26.39,29.63s12.54,30.07,26.39,30.07c14.06,0,26.38-10.6,26.38-29.85S1024,139.45,1009.9,139.45Z"/><path class="cls-2" d="M1147.89,229.65h-37V109h37v20.11c8.44-12.76,21.63-21.41,37.85-21.41V146.8h-10.16c-17.52,0-27.69,6.06-27.69,26.82Z"/><path class="cls-2" d="M1260.15,107.22c17.95,0,30.71,8.22,37.2,18.82V109h37v120.7h-37V212.56c-6.7,10.6-19.46,18.82-37.42,18.82-29.42,0-53-24.23-53-62.3S1230.51,107.22,1260.15,107.22ZM1271,139.45c-13.84,0-26.39,10.38-26.39,29.63s12.55,30.07,26.39,30.07c14.06,0,26.39-10.6,26.39-29.85S1285,139.45,1271,139.45Z"/><path class="cls-2" d="M167.64,331.11C78.23,331.11,5.5,258.38,5.5,169a162.33,162.33,0,0,1,156-162h.43A11.26,11.26,0,0,1,173.14,18.2v23a11.26,11.26,0,0,1-10.79,11.24,116.63,116.63,0,0,0,5.29,233.15C228.69,285.61,279.8,237.9,284,177a11.3,11.3,0,0,1,11.22-10.52l23.27.53a11.33,11.33,0,0,1,8,3.64,11.11,11.11,0,0,1,3,8.28A162.14,162.14,0,0,1,169.42,331.1Z"/><path class="cls-2" d="M161.91,12.44a5.76,5.76,0,0,1,5.73,5.76v23A5.77,5.77,0,0,1,162.1,47a122.14,122.14,0,0,0,5.54,244.15c64,0,117.49-50.53,121.84-113.74a5.77,5.77,0,0,1,5.74-5.4h.13l23,.53a5.75,5.75,0,0,1,5.62,6.09,156.65,156.65,0,0,1-154.62,147h-1.72C81.26,325.61,11,255.35,11,169,11,84.59,78.06,15.58,161.69,12.45Zm0-11-.64,0A167.81,167.81,0,0,0,0,169c0,92.44,75.2,167.64,167.64,167.64h1.84A167.63,167.63,0,0,0,335,179.25a16.75,16.75,0,0,0-16.34-17.75l-23-.53h-.38a16.82,16.82,0,0,0-16.71,15.64c-4,58-52.7,103.5-110.87,103.5A111.14,111.14,0,0,1,162.6,58a16.74,16.74,0,0,0,16-16.73v-23A16.77,16.77,0,0,0,161.91,1.44Z"/><path class="cls-1" d="M224.78,174.72a61.81,61.81,0,0,1-3.19,13,63,63,0,0,1-2.7,6.41l-.2,0-6.41.76c-2.45.27-4.73.51-6.88.7-8.77.75-15.28.57-22.38-1.68a49.12,49.12,0,0,1-6.94-2.74c-1.48-.73-2.68-1.41-3.69-2-2.39-1.36-3.19-1.82-5.61-1.82s-3.22.46-5.61,1.82A49.4,49.4,0,0,1,150.54,194,45.25,45.25,0,0,1,136.33,196c-2.46,0-5-.14-7.86-.37-2.14-.18-4.42-.42-6.88-.7-2.07-.23-4.27-.5-6.62-.78a64.72,64.72,0,0,1-2.66-6.27h0a62.44,62.44,0,0,1-3.26-13.13,57.59,57.59,0,0,1,.52-18.9c.12-.63.26-1.25.41-1.88h0a58.58,58.58,0,0,1,5.13-13.59,61.64,61.64,0,0,1,3.6-6c2.52-.36,5.05-.68,7.58-1q4.1-.5,8.19-.88c10.55-1,21.16-1.51,31.71-1.53,11,0,22.13.5,33.18,1.56q4.08.39,8.15.88,3.81.45,7.61,1a60.15,60.15,0,0,1,3.58,6,58.14,58.14,0,0,1,5.14,13.67c.14.58.26,1.16.38,1.74A57.73,57.73,0,0,1,224.78,174.72Z"/><path class="cls-1" d="M218.89,194.14A66,66,0,0,1,210.65,207c-11.32,13.82-27.25,21.76-43.74,21.77s-32.31-7.9-43.64-21.67a65.77,65.77,0,0,1-8.3-12.93c2.35.28,4.55.55,6.62.78,2.46.28,4.74.52,6.88.7,2.82.23,5.4.37,7.86.37A45.25,45.25,0,0,0,150.54,194a49.4,49.4,0,0,0,10.63-4.73c2.39-1.36,3.19-1.82,5.61-1.82s3.22.46,5.61,1.82c1,.58,2.21,1.26,3.69,2A49.12,49.12,0,0,0,183,194c7.1,2.25,13.61,2.43,22.38,1.68,2.15-.19,4.43-.43,6.88-.7l6.41-.76Z"/><path class="cls-1" d="M215.13,134.4q-3.8-.56-7.61-1-4.07-.5-8.15-.88c-11.05-1.06-22.16-1.58-33.18-1.56-10.55,0-21.16.53-31.71,1.53q-4.09.39-8.19.88c-2.53.3-5.06.62-7.58,1a62.62,62.62,0,0,1,9.21-10.81A56.39,56.39,0,0,1,166.25,108h.64a56.39,56.39,0,0,1,38.74,15.28A62.35,62.35,0,0,1,215.13,134.4Z"/><path class="cls-3" d="M125.08,184.28l-2.5-.27Z"/><path class="cls-4" d="M214,183.66l-2.68.31Z"/><path class="cls-1" d="M230.41,144.36a14.72,14.72,0,0,0-2.2-4c-.94-1.22-4.38-5.21-9.7-5.48-1.13-.17-2.25-.34-3.38-.49q-3.8-.56-7.61-1-4.07-.5-8.15-.88c-11.05-1.06-22.16-1.58-33.18-1.56-10.55,0-21.16.53-31.71,1.53q-4.09.39-8.19.88c-2.53.3-5.06.62-7.58,1-1.22.17-2.45.35-3.67.54a13.39,13.39,0,0,0-12.25,9.72,14.69,14.69,0,0,0-8.67,13.48V171a14.69,14.69,0,0,0,8.76,13.52,13.7,13.7,0,0,0,3.15,5.57,14.07,14.07,0,0,0,8.83,4.08H115c2.35.28,4.55.55,6.62.78,2.46.28,4.74.52,6.88.7,2.82.23,5.4.37,7.86.37A45.25,45.25,0,0,0,150.54,194a49.4,49.4,0,0,0,10.63-4.73c2.39-1.36,3.19-1.82,5.61-1.82s3.22.46,5.61,1.82c1,.58,2.21,1.26,3.69,2A49.12,49.12,0,0,0,183,194c7.1,2.25,13.61,2.43,22.38,1.68,2.15-.19,4.43-.43,6.88-.7l6.41-.76.2,0a13.89,13.89,0,0,0,8.64-4.07,13.61,13.61,0,0,0,3.09-5.42,14.57,14.57,0,0,0,9-13.65V158.09A14.56,14.56,0,0,0,230.41,144.36ZM228.66,171a3.46,3.46,0,0,1-3,3.62,5.25,5.25,0,0,0-1.38.24l-.37.13a3.79,3.79,0,0,0-.42.18,5.13,5.13,0,0,0-1.54,1.11q-.17.16-.3.33a3,3,0,0,0-.3.4c-.09.13-.17.26-.25.4a5.43,5.43,0,0,0-.72,2.71v.14a3.91,3.91,0,0,1-.78,2.24,3.65,3.65,0,0,1-2.18.75h-.07l-3.12.37-.23,0-2.68.31-.53.06-2.15.24c-1.86.2-3.58.37-5.19.49-.52.05-1,.08-1.53.11l-.81,0-1.52.08a42.16,42.16,0,0,1-8.92-.49c-.26,0-.52-.08-.77-.14l-.47-.1-.71-.15c-.77-.19-1.54-.4-2.32-.65a38.63,38.63,0,0,1-8.5-3.8,20.12,20.12,0,0,0-11.07-3.27c-5.34,0-8.25,1.66-11.07,3.27a38.63,38.63,0,0,1-8.5,3.8c-6.31,2-12.15,1.88-22.13.81l-2.5-.27-6.4-.76a3.73,3.73,0,0,1-2.18-.73,4,4,0,0,1-.79-2.26v-.15a5.55,5.55,0,0,0-.09-1,1.05,1.05,0,0,0-.06-.24s0,0,0,0a1.43,1.43,0,0,0-.07-.28,2.84,2.84,0,0,0-.17-.49,5.06,5.06,0,0,0-.78-1.35,3.27,3.27,0,0,0-.3-.35,4,4,0,0,0-.36-.35,2.69,2.69,0,0,0-.32-.27l-.34-.24a1.48,1.48,0,0,0-.27-.16,3.07,3.07,0,0,0-.63-.31,1.66,1.66,0,0,0-.31-.12l-.24-.08-.21-.06a5,5,0,0,0-1-.15,3.45,3.45,0,0,1-3-3.62V158.09a3.47,3.47,0,0,1,3-3.63,3.86,3.86,0,0,0,.49-.06l.41-.08.39-.11A5,5,0,0,0,110,154a2.21,2.21,0,0,0,.34-.18,1.22,1.22,0,0,0,.29-.17,5.17,5.17,0,0,0,.53-.39s0,0,0,0l.33-.29a.38.38,0,0,0,.09-.09,1.93,1.93,0,0,0,.27-.3l.07-.07c.1-.13.2-.26.29-.4a3.35,3.35,0,0,0,.27-.45.88.88,0,0,0,.12-.21h0a2.83,2.83,0,0,0,.16-.36,4,4,0,0,0,.16-.45,4.42,4.42,0,0,0,.21-1.13,3.71,3.71,0,0,0,0-.47v-.39a2.57,2.57,0,0,1,2.31-2.71,4.65,4.65,0,0,0,.83-.07l2.39-.35c1-.15,2-.29,3-.42l.33,0c1.1-.16,2.2-.3,3.3-.44h0c1.51-.19,3-.37,4.53-.53s3.07-.34,4.61-.49,3-.28,4.45-.4h0l3.85-.3c3.27-.24,6.54-.42,9.81-.56q6.78-.3,13.56-.31c4,0,8.08.06,12.12.21l1.42.05,1.19.05c1.43.06,2.86.12,4.29.2,2.27.13,4.55.28,6.82.46,1.23.09,2.47.19,3.7.3l1.75.16c1.06.09,2.11.2,3.17.31l1.7.18q3.13.33,6.26.73,1.58.19,3.15.42,2.72.36,5.41.78a5.27,5.27,0,0,0,.79.07,3.69,3.69,0,0,1,1.53,1.22,4.42,4.42,0,0,1,.82,1.91,4.41,4.41,0,0,0,0,.52,3.4,3.4,0,0,0,.07.46,1.27,1.27,0,0,0,.06.28c0,.14.07.27.11.4a5.22,5.22,0,0,0,.68,1.38c.08.12.17.25.26.36a3.65,3.65,0,0,0,.31.36,5.41,5.41,0,0,0,.62.55l.29.21.4.25.25.13.37.16a5.21,5.21,0,0,0,.7.23l.19,0a4.84,4.84,0,0,0,.94.12,3.47,3.47,0,0,1,3,3.63Z"/><path class="cls-5" d="M228.66,158.09V171a3.46,3.46,0,0,1-3,3.62,5.25,5.25,0,0,0-1.38.24,1.63,1.63,0,0,0-.37.13,2.65,2.65,0,0,0-.42.18,5.13,5.13,0,0,0-1.54,1.11q-.15.15-.3.33a3,3,0,0,0-.3.4,2.42,2.42,0,0,0-.25.4,5.43,5.43,0,0,0-.72,2.71v.14a3.91,3.91,0,0,1-.78,2.24,3.65,3.65,0,0,1-2.18.75h-.07l-3.12.37-.23,0-2.68.31-.53.06-2.15.24c-1.86.2-3.58.37-5.19.49l-1.53.11-.81,0-1.52.08a42.16,42.16,0,0,1-8.92-.49l-.77-.14-.47-.1-.71-.15c-.77-.19-1.54-.4-2.32-.65a38.63,38.63,0,0,1-8.5-3.8,20.09,20.09,0,0,0-8.8-3.15q-8.2-17.11-16.4-34.25,6.78-.3,13.56-.31c4,0,8.08.06,12.12.21l1.42.05,1.19.05c1.43,0,2.86.13,4.29.2,2.27.13,4.55.28,6.82.46,1.23.09,2.47.19,3.7.3l1.75.16c1.06.09,2.11.2,3.17.31.57.06,1.14.11,1.7.18q3.13.33,6.26.73,1.58.19,3.15.42,2.72.36,5.41.78a5.27,5.27,0,0,0,.79.07,3.69,3.69,0,0,1,1.53,1.22,4.42,4.42,0,0,1,.82,1.91,4.41,4.41,0,0,0,0,.52,3.4,3.4,0,0,0,.07.46,1.27,1.27,0,0,0,.06.28c0,.14.07.27.11.4a5.22,5.22,0,0,0,.68,1.38c.08.12.17.25.26.36a3.65,3.65,0,0,0,.31.36,5.41,5.41,0,0,0,.62.55,1.94,1.94,0,0,0,.29.21l.4.25.25.13.37.16a5.21,5.21,0,0,0,.7.23l.19,0a4.84,4.84,0,0,0,.94.12A3.47,3.47,0,0,1,228.66,158.09Z"/><path class="cls-3" d="M169.05,176.52a20.22,20.22,0,0,0-2.27-.12c-5.34,0-8.25,1.66-11.07,3.27a38.63,38.63,0,0,1-8.5,3.8c-6.31,2-12.15,1.88-22.13.81l-2.5-.27-6.4-.76a3.73,3.73,0,0,1-2.18-.73,4,4,0,0,1-.79-2.26v-.15a5.55,5.55,0,0,0-.09-1,2.1,2.1,0,0,0-.06-.24s0,0,0,0a1.43,1.43,0,0,0-.07-.28,2.84,2.84,0,0,0-.17-.49,5.06,5.06,0,0,0-.78-1.35,3.27,3.27,0,0,0-.3-.35,4,4,0,0,0-.36-.35,2.69,2.69,0,0,0-.32-.27,2.62,2.62,0,0,0-.34-.24,1.2,1.2,0,0,0-.27-.16,3.07,3.07,0,0,0-.63-.31,1.66,1.66,0,0,0-.31-.12l-.24-.08-.21-.06a5,5,0,0,0-1-.15,3.45,3.45,0,0,1-3-3.62V158.09a3.47,3.47,0,0,1,3-3.63,3.86,3.86,0,0,0,.49-.06l.41-.08.39-.11A5,5,0,0,0,110,154a2.21,2.21,0,0,0,.34-.18,1.22,1.22,0,0,0,.29-.17,3.28,3.28,0,0,0,.53-.39s0,0,0,0a2.86,2.86,0,0,0,.33-.29.38.38,0,0,0,.09-.09,3.65,3.65,0,0,0,.27-.3l.07-.07c.1-.13.2-.26.29-.4a2.68,2.68,0,0,0,.27-.45,1.13,1.13,0,0,0,.12-.21h0a2.83,2.83,0,0,0,.16-.36,4,4,0,0,0,.16-.45,4.42,4.42,0,0,0,.21-1.13,3.71,3.71,0,0,0,0-.47v-.39a2.57,2.57,0,0,1,2.31-2.71,4.65,4.65,0,0,0,.83-.07l2.39-.35c1-.15,2-.29,3-.42l.33,0,3.3-.44h0c1.51-.19,3-.37,4.53-.53s3.07-.34,4.61-.49l4.45-.4h0c1.28-.11,2.56-.21,3.85-.3,3.27-.24,6.54-.42,9.81-.56Q160.86,159.4,169.05,176.52Z"/><rect class="cls-6" x="284.32" y="84.9" width="45.79" height="45.79" rx="10" transform="translate(415.02 -199.42) rotate(90)"/><path class="cls-6" d="M320.12,136.7h-25.8a16,16,0,0,1-16-16V94.9a16,16,0,0,1,16-16h25.8a16,16,0,0,1,16,16v25.8A16,16,0,0,1,320.12,136.7Zm-25.8-45.8a4,4,0,0,0-4,4v25.8a4,4,0,0,0,4,4h25.8a4,4,0,0,0,4-4V94.9a4,4,0,0,0-4-4Z"/><rect class="cls-1" x="284.54" y="6" width="45.79" height="45.79" rx="10" transform="translate(336.34 -278.54) rotate(90)"/><path class="cls-1" d="M320.34,57.79h-25.8a16,16,0,0,1-16-16V16a16,16,0,0,1,16-16h25.8a16,16,0,0,1,16,16V41.79A16,16,0,0,1,320.34,57.79ZM294.54,12a4,4,0,0,0-4,4V41.79a4,4,0,0,0,4,4h25.8a4,4,0,0,0,4-4V16a4,4,0,0,0-4-4Z"/><rect class="cls-7" x="205.42" y="6.37" width="45.79" height="45.79" rx="10" transform="translate(257.59 -199.05) rotate(90)"/><path class="cls-7" d="M241.21,58.17H215.42a16,16,0,0,1-16-16V16.37a16,16,0,0,1,16-16h25.79a16,16,0,0,1,16,16v25.8A16,16,0,0,1,241.21,58.17Zm-25.79-45.8a4,4,0,0,0-4,4v25.8a4,4,0,0,0,4,4h25.79a4,4,0,0,0,4-4V16.37a4,4,0,0,0-4-4Z"/></g></g></svg>